<svg id="visual" viewBox="0 0 960 300" width="960" height="300" xmlns="http://www.w3.org/2000/svg" xmlns:xlink="http://www.w3.org/1999/xlink" version="1.1"><path d="M0 155L12.3 155C24.7 155 49.3 155 74 157.5C98.7 160 123.3 165 148 164C172.7 163 197.3 156 221.8 154.8C246.3 153.7 270.7 158.3 295.2 158.5C319.7 158.7 344.3 154.3 369 151.8C393.7 149.3 418.3 148.7 443 148.3C467.7 148 492.3 148 517 150.3C541.7 152.7 566.3 157.3 591 161.8C615.7 166.3 640.3 170.7 664.8 174.2C689.3 177.7 713.7 180.3 738.2 180.2C762.7 180 787.3 177 812 171.3C836.7 165.7 861.3 157.3 886 159.3C910.7 161.3 935.3 173.7 947.7 179.8L960 186L960 301L947.7 301C935.3 301 910.7 301 886 301C861.3 301 836.7 301 812 301C787.3 301 762.7 301 738.2 301C713.7 301 689.3 301 664.8 301C640.3 301 615.7 301 591 301C566.3 301 541.7 301 517 301C492.3 301 467.7 301 443 301C418.3 301 393.7 301 369 301C344.3 301 319.7 301 295.2 301C270.7 301 246.3 301 221.8 301C197.3 301 172.7 301 148 301C123.3 301 98.7 301 74 301C49.3 301 24.7 301 12.3 301L0 301Z" fill="#f12711"></path><path d="M0 179L12.3 182C24.7 185 49.3 191 74 193.3C98.7 195.7 123.3 194.3 148 192C172.7 189.7 197.3 186.3 221.8 184.7C246.3 183 270.7 183 295.2 183.3C319.7 183.7 344.3 184.3 369 188.7C393.7 193 418.3 201 443 199.8C467.7 198.7 492.3 188.3 517 188.2C541.7 188 566.3 198 591 202.5C615.7 207 640.3 206 664.8 205.2C689.3 204.3 713.7 203.7 738.2 203.3C762.7 203 787.3 203 812 202.7C836.7 202.3 861.3 201.7 886 197.7C910.7 193.7 935.3 186.3 947.7 182.7L960 179L960 301L947.7 301C935.3 301 910.7 301 886 301C861.3 301 836.7 301 812 301C787.3 301 762.7 301 738.2 301C713.7 301 689.3 301 664.8 301C640.3 301 615.7 301 591 301C566.3 301 541.7 301 517 301C492.3 301 467.7 301 443 301C418.3 301 393.7 301 369 301C344.3 301 319.7 301 295.2 301C270.7 301 246.3 301 221.8 301C197.3 301 172.7 301 148 301C123.3 301 98.7 301 74 301C49.3 301 24.7 301 12.3 301L0 301Z" fill="#f65a04"></path><path d="M0 214L12.3 217C24.7 220 49.3 226 74 225.2C98.7 224.3 123.3 216.7 148 215.8C172.7 215 197.3 221 221.8 223.2C246.3 225.3 270.7 223.7 295.2 224.7C319.7 225.7 344.3 229.3 369 227C393.7 224.7 418.3 216.3 443 212.3C467.7 208.3 492.3 208.7 517 212.5C541.7 216.3 566.3 223.7 591 224.2C615.7 224.7 640.3 218.3 664.8 214.7C689.3 211 713.7 210 738.2 209.8C762.7 209.7 787.3 210.3 812 209.8C836.7 209.3 861.3 207.7 886 210C910.7 212.3 935.3 218.7 947.7 221.8L960 225L960 301L947.7 301C935.3 301 910.7 301 886 301C861.3 301 836.7 301 812 301C787.3 301 762.7 301 738.2 301C713.7 301 689.3 301 664.8 301C640.3 301 615.7 301 591 301C566.3 301 541.7 301 517 301C492.3 301 467.7 301 443 301C418.3 301 393.7 301 369 301C344.3 301 319.7 301 295.2 301C270.7 301 246.3 301 221.8 301C197.3 301 172.7 301 148 301C123.3 301 98.7 301 74 301C49.3 301 24.7 301 12.3 301L0 301Z" fill="#fa7e04"></path><path d="M0 232L12.3 234.8C24.7 237.7 49.3 243.3 74 244.3C98.7 245.3 123.3 241.7 148 239.8C172.7 238 197.3 238 221.8 237.2C246.3 236.3 270.7 234.7 295.2 236.2C319.7 237.7 344.3 242.3 369 245.7C393.7 249 418.3 251 443 251.7C467.7 252.3 492.3 251.7 517 251.5C541.7 251.3 566.3 251.7 591 252.7C615.7 253.7 640.3 255.3 664.8 253.3C689.3 251.3 713.7 245.7 738.2 245.5C762.7 245.3 787.3 250.7 812 250.5C836.7 250.3 861.3 244.7 886 243.8C910.7 243 935.3 247 947.7 249L960 251L960 301L947.7 301C935.3 301 910.7 301 886 301C861.3 301 836.7 301 812 301C787.3 301 762.7 301 738.2 301C713.7 301 689.3 301 664.8 301C640.3 301 615.7 301 591 301C566.3 301 541.7 301 517 301C492.3 301 467.7 301 443 301C418.3 301 393.7 301 369 301C344.3 301 319.7 301 295.2 301C270.7 301 246.3 301 221.8 301C197.3 301 172.7 301 148 301C123.3 301 98.7 301 74 301C49.3 301 24.7 301 12.3 301L0 301Z" fill="#fc9d1a"></path><path d="M0 266L12.3 266.8C24.7 267.7 49.3 269.3 74 271.2C98.7 273 123.3 275 148 274.2C172.7 273.3 197.3 269.7 221.8 269.2C246.3 268.7 270.7 271.3 295.2 272.3C319.7 273.3 344.3 272.7 369 270.7C393.7 268.7 418.3 265.3 443 263.7C467.7 262 492.3 262 517 263C541.7 264 566.3 266 591 266.3C615.7 266.7 640.3 265.3 664.8 265.7C689.3 266 713.7 268 738.2 268C762.7 268 787.3 266 812 264.8C836.7 263.7 861.3 263.3 886 264.2C910.7 265 935.3 267 947.7 268L960 269L960 301L947.7 301C935.3 301 910.7 301 886 301C861.3 301 836.7 301 812 301C787.3 301 762.7 301 738.2 301C713.7 301 689.3 301 664.8 301C640.3 301 615.7 301 591 301C566.3 301 541.7 301 517 301C492.3 301 467.7 301 443 301C418.3 301 393.7 301 369 301C344.3 301 319.7 301 295.2 301C270.7 301 246.3 301 221.8 301C197.3 301 172.7 301 148 301C123.3 301 98.7 301 74 301C49.3 301 24.7 301 12.3 301L0 301Z" fill="#fdba34"></path></svg>