<svg id="visual" viewBox="0 0 960 200" width="960" height="200" xmlns="http://www.w3.org/2000/svg" xmlns:xlink="http://www.w3.org/1999/xlink" version="1.1"><path d="M0 55L10.7 57C21.3 59 42.7 63 64 66C85.3 69 106.7 71 128 69.8C149.3 68.7 170.7 64.3 192 66.2C213.3 68 234.7 76 256 72.3C277.3 68.7 298.7 53.3 320 53.2C341.3 53 362.7 68 384 72.7C405.3 77.3 426.7 71.7 448 65.3C469.3 59 490.7 52 512 48.8C533.3 45.7 554.7 46.3 576 43.8C597.3 41.3 618.7 35.7 640 36C661.3 36.3 682.7 42.7 704 49.7C725.3 56.7 746.7 64.3 768 62.5C789.3 60.7 810.7 49.3 832 42.3C853.3 35.3 874.7 32.7 896 36C917.3 39.3 938.7 48.7 949.3 53.3L960 58L960 201L949.3 201C938.7 201 917.3 201 896 201C874.7 201 853.3 201 832 201C810.7 201 789.3 201 768 201C746.7 201 725.3 201 704 201C682.7 201 661.3 201 640 201C618.7 201 597.3 201 576 201C554.7 201 533.3 201 512 201C490.7 201 469.3 201 448 201C426.7 201 405.3 201 384 201C362.7 201 341.3 201 320 201C298.7 201 277.3 201 256 201C234.7 201 213.3 201 192 201C170.7 201 149.3 201 128 201C106.7 201 85.3 201 64 201C42.7 201 21.3 201 10.7 201L0 201Z" fill="#f12711"></path><path d="M0 113L10.7 106.8C21.3 100.7 42.7 88.3 64 84.3C85.3 80.3 106.7 84.7 128 91.3C149.3 98 170.7 107 192 104.7C213.3 102.3 234.7 88.7 256 85.7C277.3 82.7 298.7 90.3 320 88.8C341.3 87.3 362.7 76.7 384 79.3C405.3 82 426.7 98 448 100.8C469.3 103.7 490.7 93.3 512 92.2C533.3 91 554.7 99 576 100C597.3 101 618.7 95 640 89.7C661.3 84.3 682.7 79.7 704 83.3C725.3 87 746.7 99 768 98.8C789.3 98.7 810.7 86.3 832 85.5C853.3 84.7 874.7 95.3 896 94C917.3 92.7 938.7 79.3 949.3 72.7L960 66L960 201L949.3 201C938.7 201 917.3 201 896 201C874.7 201 853.3 201 832 201C810.7 201 789.3 201 768 201C746.7 201 725.3 201 704 201C682.7 201 661.3 201 640 201C618.7 201 597.3 201 576 201C554.7 201 533.3 201 512 201C490.7 201 469.3 201 448 201C426.7 201 405.3 201 384 201C362.7 201 341.3 201 320 201C298.7 201 277.3 201 256 201C234.7 201 213.3 201 192 201C170.7 201 149.3 201 128 201C106.7 201 85.3 201 64 201C42.7 201 21.3 201 10.7 201L0 201Z" fill="#f86701"></path><path d="M0 108L10.7 107.8C21.3 107.7 42.7 107.3 64 113.3C85.3 119.3 106.7 131.7 128 131.7C149.3 131.7 170.7 119.3 192 119.7C213.3 120 234.7 133 256 137C277.3 141 298.7 136 320 133C341.3 130 362.7 129 384 127C405.3 125 426.7 122 448 121.5C469.3 121 490.7 123 512 123.8C533.3 124.7 554.7 124.3 576 126.2C597.3 128 618.7 132 640 130.8C661.3 129.7 682.7 123.3 704 122.8C725.3 122.3 746.7 127.7 768 126.3C789.3 125 810.7 117 832 114.5C853.3 112 874.7 115 896 116.8C917.3 118.7 938.7 119.3 949.3 119.7L960 120L960 201L949.3 201C938.7 201 917.3 201 896 201C874.7 201 853.3 201 832 201C810.7 201 789.3 201 768 201C746.7 201 725.3 201 704 201C682.7 201 661.3 201 640 201C618.7 201 597.3 201 576 201C554.7 201 533.3 201 512 201C490.7 201 469.3 201 448 201C426.7 201 405.3 201 384 201C362.7 201 341.3 201 320 201C298.7 201 277.3 201 256 201C234.7 201 213.3 201 192 201C170.7 201 149.3 201 128 201C106.7 201 85.3 201 64 201C42.7 201 21.3 201 10.7 201L0 201Z" fill="#fb9312"></path><path d="M0 149L10.7 148.5C21.3 148 42.7 147 64 146C85.3 145 106.7 144 128 144.5C149.3 145 170.7 147 192 148.3C213.3 149.7 234.7 150.3 256 151.7C277.3 153 298.7 155 320 159.2C341.3 163.3 362.7 169.7 384 167.8C405.3 166 426.7 156 448 151.8C469.3 147.7 490.7 149.3 512 151.8C533.3 154.3 554.7 157.7 576 158.5C597.3 159.3 618.7 157.7 640 155.7C661.3 153.7 682.7 151.3 704 149.5C725.3 147.7 746.7 146.3 768 150.3C789.3 154.3 810.7 163.7 832 164C853.3 164.3 874.7 155.7 896 150C917.3 144.3 938.7 141.7 949.3 140.3L960 139L960 201L949.3 201C938.7 201 917.3 201 896 201C874.7 201 853.3 201 832 201C810.7 201 789.3 201 768 201C746.7 201 725.3 201 704 201C682.7 201 661.3 201 640 201C618.7 201 597.3 201 576 201C554.7 201 533.3 201 512 201C490.7 201 469.3 201 448 201C426.7 201 405.3 201 384 201C362.7 201 341.3 201 320 201C298.7 201 277.3 201 256 201C234.7 201 213.3 201 192 201C170.7 201 149.3 201 128 201C106.7 201 85.3 201 64 201C42.7 201 21.3 201 10.7 201L0 201Z" fill="#fdba34"></path></svg>