<svg id="visual" viewBox="0 0 900 600" width="900" height="600" xmlns="http://www.w3.org/2000/svg" xmlns:xlink="http://www.w3.org/1999/xlink" version="1.1"><path d="M0 374L16.7 369.5C33.3 365 66.7 356 100 353C133.3 350 166.7 353 200 357.8C233.3 362.7 266.7 369.3 300 377C333.3 384.7 366.7 393.3 400 395.7C433.3 398 466.7 394 500 385.7C533.3 377.3 566.7 364.7 600 366.7C633.3 368.7 666.7 385.3 700 390.2C733.3 395 766.7 388 800 388C833.3 388 866.7 395 883.3 398.5L900 402L900 601L883.3 601C866.7 601 833.3 601 800 601C766.7 601 733.3 601 700 601C666.7 601 633.3 601 600 601C566.7 601 533.3 601 500 601C466.7 601 433.3 601 400 601C366.7 601 333.3 601 300 601C266.7 601 233.3 601 200 601C166.7 601 133.3 601 100 601C66.7 601 33.3 601 16.7 601L0 601Z" fill="#f12711"></path><path d="M0 410L16.7 412.8C33.3 415.7 66.7 421.3 100 422C133.3 422.7 166.7 418.3 200 412.8C233.3 407.3 266.7 400.7 300 406.7C333.3 412.7 366.7 431.3 400 438.2C433.3 445 466.7 440 500 438.5C533.3 437 566.7 439 600 437.8C633.3 436.7 666.7 432.3 700 429.7C733.3 427 766.7 426 800 427.3C833.3 428.7 866.7 432.3 883.3 434.2L900 436L900 601L883.3 601C866.7 601 833.3 601 800 601C766.7 601 733.3 601 700 601C666.7 601 633.3 601 600 601C566.7 601 533.3 601 500 601C466.7 601 433.3 601 400 601C366.7 601 333.3 601 300 601C266.7 601 233.3 601 200 601C166.7 601 133.3 601 100 601C66.7 601 33.3 601 16.7 601L0 601Z" fill="#f65a04"></path><path d="M0 453L16.7 451.2C33.3 449.3 66.7 445.7 100 449.8C133.3 454 166.7 466 200 471C233.3 476 266.7 474 300 467.5C333.3 461 366.7 450 400 449.5C433.3 449 466.7 459 500 462C533.3 465 566.7 461 600 457.3C633.3 453.7 666.7 450.3 700 455.3C733.3 460.3 766.7 473.7 800 473.7C833.3 473.7 866.7 460.3 883.3 453.7L900 447L900 601L883.3 601C866.7 601 833.3 601 800 601C766.7 601 733.3 601 700 601C666.7 601 633.3 601 600 601C566.7 601 533.3 601 500 601C466.7 601 433.3 601 400 601C366.7 601 333.3 601 300 601C266.7 601 233.3 601 200 601C166.7 601 133.3 601 100 601C66.7 601 33.3 601 16.7 601L0 601Z" fill="#fa7e04"></path><path d="M0 493L16.7 496.7C33.3 500.3 66.7 507.7 100 512.3C133.3 517 166.7 519 200 518.5C233.3 518 266.7 515 300 513.8C333.3 512.7 366.7 513.3 400 515C433.3 516.7 466.7 519.3 500 514.5C533.3 509.7 566.7 497.3 600 497.2C633.3 497 666.7 509 700 514.2C733.3 519.3 766.7 517.7 800 514C833.3 510.3 866.7 504.7 883.3 501.8L900 499L900 601L883.3 601C866.7 601 833.3 601 800 601C766.7 601 733.3 601 700 601C666.7 601 633.3 601 600 601C566.7 601 533.3 601 500 601C466.7 601 433.3 601 400 601C366.7 601 333.3 601 300 601C266.7 601 233.3 601 200 601C166.7 601 133.3 601 100 601C66.7 601 33.3 601 16.7 601L0 601Z" fill="#fc9d1a"></path><path d="M0 569L16.7 568.5C33.3 568 66.7 567 100 563.7C133.3 560.3 166.7 554.7 200 548.7C233.3 542.7 266.7 536.3 300 533.2C333.3 530 366.7 530 400 532.7C433.3 535.3 466.7 540.7 500 542.2C533.3 543.7 566.7 541.3 600 543.2C633.3 545 666.7 551 700 550.3C733.3 549.7 766.7 542.3 800 538.5C833.3 534.7 866.7 534.3 883.3 534.2L900 534L900 601L883.3 601C866.7 601 833.3 601 800 601C766.7 601 733.3 601 700 601C666.7 601 633.3 601 600 601C566.7 601 533.3 601 500 601C466.7 601 433.3 601 400 601C366.7 601 333.3 601 300 601C266.7 601 233.3 601 200 601C166.7 601 133.3 601 100 601C66.7 601 33.3 601 16.7 601L0 601Z" fill="#fdba34"></path></svg>